<svg width="483" height="331" viewBox="0 0 483 331" fill="none" xmlns="http://www.w3.org/2000/svg">
<path d="M241.7 34.1C235.37 34.133 229.061 34.8369 222.88 36.2C216.592 37.5745 210.499 39.7242 204.74 42.6C201.834 44.0765 199.031 45.747 196.35 47.6C193.668 49.4794 191.119 51.5409 188.72 53.77C183.984 58.1983 179.882 63.2595 176.53 68.81L176.38 69.05C175.52 70.45 174.75 71.9 173.97 73.34C173.19 74.78 172.49 76.26 171.85 77.76C171.21 79.26 170.57 80.76 169.97 82.28L169.14 84.58C168.86 85.34 168.61 86.11 168.37 86.89C167.37 89.98 166.56 93.12 165.83 96.26C165.1 99.4 164.58 102.59 164.17 105.77L162.99 114.93C162.57 117.93 162.12 120.93 161.59 123.93C160.226 132.226 158.108 140.38 155.26 148.29C154.077 151.485 152.684 154.599 151.09 157.61C148.365 162.689 144.938 167.358 140.91 171.48C136.703 175.686 132.158 179.539 127.32 183C122.43 186.62 117.32 190.15 112.32 193.85C109.813 195.69 107.33 197.58 104.87 199.52C102.42 201.45 100 203.42 97.64 205.46C92.9 209.53 88.33 213.8 84.03 218.29C79.73 222.78 75.6 227.43 71.74 232.29C74.06 230.29 76.34 228.15 78.74 226.16C81.14 224.17 83.43 222.16 85.83 220.24C87.03 219.24 88.23 218.32 89.45 217.38C90.67 216.44 91.88 215.5 93.1 214.57C95.5533 212.73 98.0333 210.93 100.54 209.17C103.047 207.41 105.58 205.697 108.14 204.03C110.71 202.35 113.3 200.72 115.9 199.09C121.11 195.84 126.4 192.68 131.67 189.27C137.1 185.857 142.217 181.968 146.96 177.65C151.79 173.127 155.928 167.918 159.24 162.19C160.895 159.319 162.375 156.35 163.67 153.3C165.103 153.967 166.543 154.613 167.99 155.24L188.05 163.79C201.52 169.33 210.3 172.45 210.3 182.16C210.3 191.32 203.17 197.05 188.61 197.05C175.91 197.05 161.68 190.48 150.71 180.93L130.71 204.86C146.44 219.57 167.78 227.17 187.86 227.17C224.63 227.17 245.99 204.97 245.99 179.35C245.99 157.54 234.22 144.99 215.38 137.35L195.72 129.35C184.72 124.96 175.94 121.85 173.12 115.68C173.31 114.33 173.5 112.98 173.65 111.63L173.93 109.29L174.21 107.08C174.36 105.86 174.55 104.64 174.74 103.42C177.94 99.42 183.94 97.25 191.84 97.25C204.04 97.25 213.7 101.54 223.84 109.34L241.45 87.34C228.147 74.4331 210.345 67.2069 191.81 67.19C190.67 67.19 189.55 67.19 188.43 67.28C190.281 64.6074 192.337 62.0831 194.58 59.73C196.577 57.6234 198.715 55.6555 200.98 53.84C203.258 52.0131 205.656 50.3426 208.16 48.84C213.24 45.7558 218.65 43.2534 224.29 41.38C230.035 39.4684 235.938 38.0696 241.93 37.2C244.93 36.73 248 36.4 251.06 36.2C254.138 35.9748 257.225 35.9047 260.31 35.99C254.197 34.6676 247.954 34.0337 241.7 34.1Z" fill="white"/>
<path d="M172.91 70.46C174.65 70.51 115.91 62.15 133.28 119.46C133.28 119.48 135.33 69.48 172.91 70.46Z" fill="white"/>
<path d="M162.14 82.7C162.05 82.58 161.96 82.45 161.85 82.32C160.939 81.2463 159.689 80.5153 158.306 80.2479C156.923 79.9805 155.491 80.1926 154.245 80.8492C152.999 81.5057 152.014 82.5675 151.453 83.8592C150.892 85.1509 150.788 86.5953 151.159 87.954C151.529 89.3127 152.352 90.5044 153.491 91.3324C154.63 92.1604 156.018 92.5752 157.424 92.5083C158.831 92.4415 160.173 91.8969 161.229 90.9645C162.284 90.0322 162.99 88.7677 163.23 87.38C162.878 87.6645 162.46 87.855 162.015 87.9336C161.569 88.0122 161.111 87.9763 160.683 87.8293C160.255 87.6824 159.872 87.4291 159.569 87.0934C159.266 86.7576 159.053 86.3504 158.95 85.9098C158.848 85.4693 158.859 85.0099 158.982 84.5747C159.106 84.1396 159.338 83.743 159.657 83.4222C159.976 83.1013 160.371 82.8667 160.805 82.7404C161.239 82.6141 161.699 82.6002 162.14 82.7Z" fill="white"/>
<path d="M57.8101 255.94C57.8101 255.94 71.5501 200.81 101.62 181.61C101.62 181.61 61.2501 181.98 57.8101 255.94Z" fill="white"/>
<path d="M73.1899 273.74C76.9774 278.359 82.1478 281.64 87.9399 283.1C54.7199 255.33 82.3299 227.1 82.3299 227.1C70.7599 232.1 55.3299 257.23 64.5899 277.38C73.8499 297.53 94.37 300.11 94.37 300.11C74.72 289.28 73.1899 273.74 73.1899 273.74Z" fill="white"/>
<path d="M56.0199 285.8C62.8599 299.03 71.0199 301.8 71.0199 301.8C36.8999 254.7 63.67 208.67 63.67 208.67C52.24 216.67 37.5799 257.81 47.4599 291.51C57.3399 325.21 77.99 330.14 77.99 330.14C58.03 311.63 56.0199 285.8 56.0199 285.8Z" fill="white"/>
<path d="M54.1399 100.52L65.8699 111.65C69.8699 115.49 73.7999 119.49 77.5299 123.75C85.3435 132.41 91.7543 142.239 96.5299 152.88C98.4408 157.313 99.9729 161.899 101.11 166.59C102.12 162.613 102.743 158.547 102.97 154.45C103.468 145.254 101.928 136.062 98.4599 127.53C97.5799 125.36 96.5799 123.23 95.4599 121.13C94.3399 119.03 93.1399 116.98 91.8399 114.96C89.1411 110.894 86.1322 107.042 82.8399 103.44C75.9813 96.0738 68.3012 89.5177 59.9499 83.9C58.8999 83.18 57.8499 82.45 56.7699 81.77L53.5299 79.65C52.3899 78.9 51.2399 78.18 50.1099 77.42L46.7299 75.11C42.2299 71.9825 37.9097 68.6038 33.7899 64.99C29.6395 61.3721 25.7871 57.4261 22.2699 53.19C21.8799 52.72 21.4999 52.24 21.1299 51.76C21.2299 52.25 21.3299 52.76 21.4599 53.23C21.7999 54.47 22.0799 55.72 22.4599 56.93C23.218 59.3718 24.1298 61.7633 25.1899 64.09C26.2501 66.417 27.4317 68.6869 28.7299 70.89C30.0499 73.09 31.4299 75.25 32.9599 77.33C39.0299 85.66 46.4499 93.19 54.1399 100.52Z" fill="white"/>
<path d="M122.82 100.01C118.313 84.4347 109.485 70.455 97.3601 59.69C82.1801 46.05 64.7801 36.37 55.1501 29.38C32.4501 12.92 36.8701 0 36.8701 0C36.8701 0 25.7001 11.87 24.9801 27.48C24.6501 34.78 26.6001 42.91 33.0501 51.01C36.1233 54.8137 39.7783 58.1077 43.8801 60.77C46.6801 62.6233 49.5534 64.3767 52.5 66.03L55.8701 67.88C57.0001 68.48 58.1501 69.06 59.2801 69.65L62.8601 71.53C64.0701 72.15 65.2601 72.83 66.4601 73.53C76.1872 78.8867 85.2696 85.3387 93.5301 92.76C97.7412 96.6221 101.643 100.808 105.2 105.28C106.987 107.553 108.68 109.913 110.28 112.36C111.85 114.82 113.34 117.36 114.69 119.99C117.987 126.376 120.432 133.167 121.96 140.19C122.87 137.55 123.61 134.97 124.23 132.44C126.63 121.59 125.83 110.66 122.82 100.01Z" fill="white"/>
<path d="M83.28 180.24C83.2841 177.861 83.1573 175.485 82.9 173.12C82.4014 168.399 81.3956 163.745 79.9 159.24C76.9 150.08 71.97 141.29 65.95 133C62.95 128.84 59.65 124.81 56.21 120.85L45.53 108.67C38.4 100.44 31.26 91.84 25.53 82.12C24.08 79.7 22.78 77.18 21.53 74.64C20.3192 72.0704 19.2412 69.4402 18.3 66.76C17.3727 64.0752 16.6079 61.3369 16.01 58.56C15.84 57.84 15.71 57.11 15.58 56.39C11.7312 70.2413 9.3844 84.4665 8.58002 98.82C8.25072 106.293 9.95455 113.715 13.51 120.296C17.0655 126.876 22.3394 132.37 28.77 136.19C31.41 137.76 33.16 138.73 33.16 138.73C25.4151 135.798 17.9625 132.145 10.9 127.82C9.96002 127.22 9.04003 126.6 8.16003 125.97C4.55003 123.38 1.54 120.55 0 117.67C0 117.67 6.55002 147.4 35.33 166.67C44.82 173.67 57.3301 178.74 73.4301 181.26L74.79 181.47L75.9901 181.64C78.3501 181.97 80.76 182.24 83.26 182.44C83.28 181.76 83.29 181 83.28 180.24Z" fill="white"/>
<path d="M329.903 193.217H281.796L272.619 215.42H248.048L294.23 111.806H317.913L364.244 215.42H339.08L329.903 193.217ZM322.354 175.011L305.924 135.341L289.493 175.011H322.354Z" fill="white"/>
<path d="M470.022 111.806V215.42H450.336L398.677 152.512V215.42H374.994V111.806H394.828L446.339 174.715V111.806H470.022Z" fill="white"/>
<path d="M117.59 258.45H120.14V293.45H117.59V258.45Z" fill="white"/>
<path d="M160.836 258.45V293.45H158.736L134.886 263.05V293.45H132.336V258.45H134.486L158.286 288.85V258.45H160.836Z" fill="white"/>
<path d="M206.159 293.45L206.109 263.5L191.459 288.8H190.209L175.559 263.6V293.45H173.059V258.45H175.209L190.859 285.5L206.509 258.45H208.609L208.659 293.45H206.159Z" fill="white"/>
<path d="M235.712 293.7C232.278 293.7 229.178 292.933 226.412 291.4C223.645 289.833 221.462 287.7 219.862 285C218.295 282.3 217.512 279.283 217.512 275.95C217.512 272.617 218.295 269.6 219.862 266.9C221.462 264.2 223.645 262.083 226.412 260.55C229.178 258.983 232.278 258.2 235.712 258.2C239.145 258.2 242.245 258.967 245.012 260.5C247.778 262.033 249.945 264.15 251.512 266.85C253.112 269.55 253.912 272.583 253.912 275.95C253.912 279.317 253.112 282.35 251.512 285.05C249.945 287.75 247.778 289.867 245.012 291.4C242.245 292.933 239.145 293.7 235.712 293.7ZM235.712 291.35C238.645 291.35 241.295 290.683 243.662 289.35C246.028 288.017 247.895 286.183 249.262 283.85C250.628 281.483 251.312 278.85 251.312 275.95C251.312 273.05 250.628 270.433 249.262 268.1C247.895 265.733 246.028 263.883 243.662 262.55C241.295 261.217 238.645 260.55 235.712 260.55C232.778 260.55 230.112 261.217 227.712 262.55C225.345 263.883 223.478 265.733 222.112 268.1C220.745 270.433 220.062 273.05 220.062 275.95C220.062 278.85 220.745 281.483 222.112 283.85C223.478 286.183 225.345 288.017 227.712 289.35C230.112 290.683 232.778 291.35 235.712 291.35Z" fill="white"/>
<path d="M283.556 275.4C286.056 275.867 287.956 276.85 289.256 278.35C290.589 279.85 291.256 281.8 291.256 284.2C291.256 287.167 290.173 289.45 288.006 291.05C285.839 292.65 282.623 293.45 278.356 293.45H262.756V258.45H277.356C281.156 258.45 284.106 259.233 286.206 260.8C288.339 262.333 289.406 264.533 289.406 267.4C289.406 269.4 288.873 271.083 287.806 272.45C286.773 273.817 285.356 274.8 283.556 275.4ZM265.306 260.65V274.6H277.256C280.323 274.6 282.673 274.017 284.306 272.85C285.973 271.65 286.806 269.9 286.806 267.6C286.806 265.333 285.973 263.617 284.306 262.45C282.673 261.25 280.323 260.65 277.256 260.65H265.306ZM278.356 291.25C281.756 291.25 284.323 290.667 286.056 289.5C287.823 288.3 288.706 286.467 288.706 284C288.706 281.533 287.823 279.717 286.056 278.55C284.323 277.383 281.756 276.8 278.356 276.8H265.306V291.25H278.356Z" fill="white"/>
<path d="M300.354 258.45H302.904V293.45H300.354V258.45Z" fill="white"/>
<path d="M315.1 258.45H317.65V291.15H337.8V293.45H315.1V258.45Z" fill="white"/>
<path d="M344.348 258.45H346.898V293.45H344.348V258.45Z" fill="white"/>
<path d="M380.744 283.6H360.444L355.994 293.45H353.244L369.344 258.45H371.894L387.994 293.45H385.244L380.744 283.6ZM379.794 281.45L370.594 261.25L361.444 281.45H379.794Z" fill="white"/>
<path d="M418.648 293.45L410.298 281.75C409.065 281.917 407.931 282 406.898 282H396.898V293.45H394.348V258.45H406.898C411.298 258.45 414.748 259.5 417.248 261.6C419.748 263.667 420.998 266.55 420.998 270.25C420.998 273.017 420.281 275.35 418.848 277.25C417.448 279.117 415.431 280.433 412.798 281.2L421.548 293.45H418.648ZM406.898 279.75C410.631 279.75 413.481 278.933 415.448 277.3C417.415 275.633 418.398 273.283 418.398 270.25C418.398 267.217 417.415 264.883 415.448 263.25C413.481 261.583 410.631 260.75 406.898 260.75H396.898V279.75H406.898Z" fill="white"/>
<path d="M430.334 258.45H432.884V293.45H430.334V258.45Z" fill="white"/>
<path d="M466.73 283.6H446.43L441.98 293.45H439.23L455.33 258.45H457.88L473.98 293.45H471.23L466.73 283.6ZM465.78 281.45L456.58 261.25L447.43 281.45H465.78Z" fill="white"/>
</svg>
