<svg width="16" height="14" viewBox="0 0 16 14" fill="none" xmlns="http://www.w3.org/2000/svg">
<path d="M13.8 5.6C14.3602 5.59997 14.8994 5.81367 15.3074 6.19751C15.7155 6.58135 15.9618 7.10642 15.996 7.6656L16 7.8V13C16 13.152 15.9422 13.2984 15.8384 13.4094C15.7346 13.5205 15.5926 13.5881 15.4409 13.5984C15.2892 13.6088 15.1393 13.5612 15.0214 13.4653C14.9034 13.3693 14.8263 13.2322 14.8056 13.0816L14.8 13V11.2H1.2V13C1.19999 13.145 1.14749 13.2851 1.05219 13.3943C0.956887 13.5036 0.825243 13.5747 0.6816 13.5944L0.6 13.6C0.45501 13.6 0.314926 13.5475 0.205655 13.4522C0.0963846 13.3569 0.0253186 13.2252 0.00559998 13.0816L2.71084e-09 13V7.8C-2.77914e-05 7.23977 0.213674 6.70063 0.597515 6.29256C0.981355 5.88449 1.50642 5.63822 2.0656 5.604L2.2 5.6H13.8ZM3.8 2.71085e-09H12.2C12.7602 -2.77914e-05 13.2994 0.213674 13.7074 0.597514C14.1155 0.981355 14.3618 1.50642 14.396 2.0656L14.4 2.2V4.8H12L11.9944 4.7064C11.9733 4.52783 11.8927 4.36155 11.7656 4.23441C11.6384 4.10726 11.4722 4.02666 11.2936 4.0056L11.2 4H9.6C9.40405 4.00003 9.21493 4.07196 9.0685 4.20217C8.92207 4.33238 8.82853 4.5118 8.8056 4.7064L8.8 4.8H7.2L7.1944 4.7064C7.17334 4.52783 7.09274 4.36155 6.96559 4.23441C6.83845 4.10726 6.67217 4.02666 6.4936 4.0056L6.4 4H4.8C4.60405 4.00003 4.41493 4.07196 4.2685 4.20217C4.12207 4.33238 4.02853 4.5118 4.0056 4.7064L4 4.8H1.6V2.2C1.59997 1.63977 1.81367 1.10063 2.19751 0.692562C2.58136 0.28449 3.10642 0.038225 3.6656 0.00400009L3.8 2.71085e-09Z" fill="white"/>
</svg>
