<svg width="32" height="32" viewBox="0 0 32 32" fill="none" xmlns="http://www.w3.org/2000/svg">
<g clip-path="url(#clip0_243_81)">
<path d="M31.7082 25.708L22.0002 16L31.7082 6.29203C31.8942 6.10373 31.9985 5.84971 31.9985 5.58503C31.9985 5.32035 31.8942 5.06633 31.7082 4.87803L27.1222 0.29203C27.0294 0.198965 26.9192 0.125122 26.7979 0.0747358C26.6766 0.0243499 26.5465 -0.00158691 26.4152 -0.00158691C26.2838 -0.00158691 26.1537 0.0243499 26.0324 0.0747358C25.9111 0.125122 25.8009 0.198965 25.7082 0.29203L16.0002 10L6.29215 0.29203C6.10462 0.104559 5.85032 -0.000756076 5.58515 -0.000756076C5.31999 -0.000756076 5.06568 0.104559 4.87815 0.29203L0.292152 4.87803C0.199087 4.97075 0.125244 5.08093 0.0748579 5.20226C0.024472 5.32358 -0.00146484 5.45366 -0.00146484 5.58503C-0.00146484 5.7164 0.024472 5.84648 0.0748579 5.9678C0.125244 6.08913 0.199087 6.19931 0.292152 6.29203L10.0002 16L0.292152 25.708C0.104681 25.8956 -0.000634006 26.1499 -0.000634006 26.415C-0.000634006 26.6802 0.104681 26.9345 0.292152 27.122L4.87815 31.708C4.97087 31.8011 5.08106 31.8749 5.20238 31.9253C5.3237 31.9757 5.45378 32.0016 5.58515 32.0016C5.71652 32.0016 5.8466 31.9757 5.96793 31.9253C6.08925 31.8749 6.19943 31.8011 6.29215 31.708L16.0002 22L25.7082 31.708C25.8957 31.8955 26.15 32.0008 26.4152 32.0008C26.6803 32.0008 26.9346 31.8955 27.1222 31.708L31.7082 27.122C31.8012 27.0293 31.8751 26.9191 31.9254 26.7978C31.9758 26.6765 32.0018 26.5464 32.0018 26.415C32.0018 26.2837 31.9758 26.1536 31.9254 26.0323C31.8751 25.9109 31.8012 25.8008 31.7082 25.708Z" fill="#A1A1AA"/>
</g>
<defs>
<clipPath id="clip0_243_81">
<rect width="32" height="32" fill="white"/>
</clipPath>
</defs>
</svg>
