<svg width="25" height="24" viewBox="0 0 25 24" fill="none" xmlns="http://www.w3.org/2000/svg">
<path d="M7.46 0H17.54C21.38 0 24.5 3.12 24.5 6.96V17.04C24.5 18.8859 23.7667 20.6562 22.4615 21.9615C21.1562 23.2667 19.3859 24 17.54 24H7.46C3.62 24 0.5 20.88 0.5 17.04V6.96C0.5 5.11409 1.23328 3.34379 2.53854 2.03854C3.84379 0.733284 5.61409 0 7.46 0ZM7.22 2.4C6.07427 2.4 4.97546 2.85514 4.1653 3.6653C3.35514 4.47546 2.9 5.57427 2.9 6.72V17.28C2.9 19.668 4.832 21.6 7.22 21.6H17.78C18.9257 21.6 20.0245 21.1449 20.8347 20.3347C21.6449 19.5245 22.1 18.4257 22.1 17.28V6.72C22.1 4.332 20.168 2.4 17.78 2.4H7.22ZM18.8 4.2C19.1978 4.2 19.5794 4.35804 19.8607 4.63934C20.142 4.92064 20.3 5.30218 20.3 5.7C20.3 6.09783 20.142 6.47936 19.8607 6.76066C19.5794 7.04197 19.1978 7.2 18.8 7.2C18.4022 7.2 18.0206 7.04197 17.7393 6.76066C17.458 6.47936 17.3 6.09783 17.3 5.7C17.3 5.30218 17.458 4.92064 17.7393 4.63934C18.0206 4.35804 18.4022 4.2 18.8 4.2ZM12.5 6C14.0913 6 15.6174 6.63214 16.7426 7.75736C17.8679 8.88258 18.5 10.4087 18.5 12C18.5 13.5913 17.8679 15.1174 16.7426 16.2426C15.6174 17.3679 14.0913 18 12.5 18C10.9087 18 9.38258 17.3679 8.25736 16.2426C7.13214 15.1174 6.5 13.5913 6.5 12C6.5 10.4087 7.13214 8.88258 8.25736 7.75736C9.38258 6.63214 10.9087 6 12.5 6ZM12.5 8.4C11.5452 8.4 10.6295 8.77928 9.95442 9.45442C9.27928 10.1295 8.9 11.0452 8.9 12C8.9 12.9548 9.27928 13.8705 9.95442 14.5456C10.6295 15.2207 11.5452 15.6 12.5 15.6C13.4548 15.6 14.3705 15.2207 15.0456 14.5456C15.7207 13.8705 16.1 12.9548 16.1 12C16.1 11.0452 15.7207 10.1295 15.0456 9.45442C14.3705 8.77928 13.4548 8.4 12.5 8.4Z" fill="white"/>
</svg>
