<svg width="80" height="80" viewBox="0 0 80 80" fill="none" xmlns="http://www.w3.org/2000/svg">
<rect width="80" height="79.9897" rx="39.9949" fill="#CE2525"/>
<path d="M45.3333 31.1008C46.2763 31.1008 47.1807 31.4754 47.8475 32.1422C48.5143 32.809 48.8889 33.7134 48.8889 34.6564M56 34.6564C56.0005 36.3225 55.6107 37.9655 54.8618 39.4538C54.113 40.9421 53.0259 42.2343 51.6877 43.2268C50.3496 44.2194 48.7975 44.8846 47.1559 45.1693C45.5143 45.454 43.8289 45.3502 42.2347 44.8662L38.2222 48.8786H34.6667V52.4342H31.1111V55.9897H25.7778C25.3063 55.9897 24.8541 55.8024 24.5207 55.469C24.1873 55.1356 24 54.6834 24 54.2119V49.6146C24.0001 49.1431 24.1875 48.691 24.5209 48.3577L35.1236 37.7551C34.6799 36.2884 34.5575 34.7434 34.7645 33.2252C34.9716 31.707 35.5033 30.2512 36.3235 28.9569C37.1438 27.6626 38.2332 26.5603 39.5177 25.7249C40.8022 24.8894 42.2516 24.3406 43.7673 24.1156C45.2829 23.8906 46.8293 23.9948 48.301 24.4212C49.7728 24.8475 51.1355 25.5859 52.2963 26.5861C53.457 27.5863 54.3887 28.8249 55.0278 30.2175C55.6669 31.6101 55.9985 33.1241 56 34.6564Z" stroke="white" stroke-width="2" stroke-linecap="round" stroke-linejoin="round"/>
</svg>
