<svg width="80" height="80" viewBox="0 0 80 80" fill="none" xmlns="http://www.w3.org/2000/svg">
<rect width="80" height="80" rx="40" fill="#CE2525"/>
<path d="M55.5648 52.6153L38.4219 37.0071L39.2198 36.2071C39.8491 35.5752 40.226 34.7353 40.2798 33.8451C40.3114 33.8318 40.3421 33.8164 40.3718 33.7991L43.5896 31.7871C43.7997 31.5309 43.9085 31.2065 43.8952 30.8754C43.8819 30.5443 43.7475 30.2296 43.5176 29.9911L37.9199 24.379C37.6823 24.1489 37.3682 24.0144 37.0377 24.0011C36.7072 23.9878 36.3833 24.0967 36.128 24.307L34.1201 27.535L34.0761 27.6271C33.2162 27.6811 32.3722 28.0351 31.7203 28.6891L28.6765 31.7431C28.0225 32.3971 27.6705 33.2431 27.6165 34.1051C27.5849 34.1184 27.5542 34.1338 27.5245 34.1511L24.3067 36.1631C24.0966 36.4193 23.9878 36.7437 24.0011 37.0748C24.0144 37.4059 24.1487 37.7206 24.3787 37.9591L29.9764 43.5712C30.214 43.8013 30.5281 43.9359 30.8586 43.9491C31.1891 43.9624 31.5129 43.8535 31.7683 43.6432L33.7762 40.4152L33.8222 40.3232C34.6821 40.2692 35.5261 39.9152 36.178 39.2612L37.062 38.3752L52.627 55.5673C53.079 56.0653 53.7729 56.1453 54.1729 55.7453L55.7468 54.1673C56.1448 53.7673 56.0648 53.0693 55.5688 52.6173L55.5648 52.6153Z" fill="white"/>
</svg>
