<svg width="22" height="24" viewBox="0 0 22 24" fill="none" xmlns="http://www.w3.org/2000/svg">
<path d="M8.24913 13.342C8.43049 12.938 8.53284 12.482 8.53284 12C8.53284 11.518 8.43049 11.062 8.24913 10.658M8.24913 13.342C7.97772 13.9464 7.53106 14.431 6.98151 14.7174C6.43195 15.0037 5.81169 15.075 5.22121 14.9197C4.63074 14.7644 4.10463 14.3916 3.72813 13.8617C3.35163 13.3317 3.14678 12.6758 3.14678 12C3.14678 11.3242 3.35163 10.6682 3.72813 10.1383C4.10463 9.60841 4.63074 9.2356 5.22121 9.08029C5.81169 8.92499 6.43195 8.99628 6.98151 9.28263C7.53106 9.56898 7.97772 10.0536 8.24913 10.658M8.24913 13.342L14.2034 16.658M8.24913 10.658L14.2034 7.34199M14.2034 16.658C13.8839 17.3698 13.8313 18.1939 14.0572 18.9489C14.2832 19.704 14.7692 20.3281 15.4083 20.684C16.0474 21.0399 16.7872 21.0985 17.4651 20.8468C18.143 20.5951 18.7033 20.0538 19.0229 19.342C19.3424 18.6302 19.395 17.8061 19.169 17.0511C18.9431 16.296 18.4571 15.6719 17.818 15.316C17.5015 15.1398 17.157 15.0347 16.8041 15.0067C16.4512 14.9788 16.0968 15.0286 15.7612 15.1532C15.0833 15.4049 14.523 15.9462 14.2034 16.658ZM14.2034 7.34199C14.3616 7.69439 14.5806 8.00863 14.8479 8.26677C15.1151 8.5249 15.4254 8.72188 15.761 8.84645C16.0966 8.97102 16.451 9.02074 16.8038 8.99278C17.1567 8.96482 17.5012 8.85973 17.8175 8.68349C18.1339 8.50726 18.4161 8.26334 18.6478 7.96566C18.8796 7.66798 19.0564 7.32238 19.1683 6.94858C19.2801 6.57477 19.3247 6.1801 19.2996 5.78708C19.2745 5.39406 19.1802 5.01039 19.022 4.65799C18.7024 3.94628 18.1421 3.40511 17.4643 3.15353C16.7865 2.90195 16.0468 2.96057 15.4078 3.31649C14.7688 3.67241 14.283 4.29648 14.0571 5.05141C13.8312 5.80634 13.8839 6.63028 14.2034 7.34199Z" stroke="white" stroke-width="2" stroke-linecap="round" stroke-linejoin="round"/>
</svg>
